<svg width="33" height="33" viewBox="0 0 33 33" fill="none" xmlns="http://www.w3.org/2000/svg">
<circle cx="16.5" cy="16.5" r="15.5" fill="#161D29"/>
<path d="M16.25 29.25C9.08375 29.25 3.25 23.4163 3.25 16.25C3.25 9.08375 9.08375 3.25 16.25 3.25C23.4163 3.25 29.25 9.08375 29.25 16.25C29.25 23.4163 23.4163 29.25 16.25 29.25ZM16.25 0C14.116 0 12.0029 0.420319 10.0314 1.23696C8.05985 2.0536 6.26847 3.25056 4.75951 4.75951C1.71205 7.80698 0 11.9402 0 16.25C0 20.5598 1.71205 24.693 4.75951 27.7405C6.26847 29.2494 8.05985 30.4464 10.0314 31.263C12.0029 32.0797 14.116 32.5 16.25 32.5C20.5598 32.5 24.693 30.788 27.7405 27.7405C30.788 24.693 32.5 20.5598 32.5 16.25C32.5 14.116 32.0797 12.0029 31.263 10.0314C30.4464 8.05985 29.2494 6.26847 27.7405 4.75951C26.2315 3.25056 24.4401 2.0536 22.4686 1.23696C20.4971 0.420319 18.384 0 16.25 0ZM17.875 8.125H14.625V14.625H8.125V17.875H14.625V24.375H17.875V17.875H24.375V14.625H17.875V8.125Z" fill="white"/>
</svg>